<svg id="Component_2_1" data-name="Component 2 – 1" xmlns="http://www.w3.org/2000/svg" width="184" height="41.129" viewBox="0 0 184 41.129">
  <g id="Group_3" data-name="Group 3">
    <g id="Group_2" data-name="Group 2" transform="translate(0 0)">
      <g id="Group_1" data-name="Group 1">
        <path id="Path_1" data-name="Path 1" d="M68.433,333.407a19.012,19.012,0,0,1,14.35-5.823q8.734,0,14.115,5.646a19.483,19.483,0,0,1,5.41,14.115,20.891,20.891,0,0,1-5.469,14.7c-3.588,3.94-8.41,5.94-14.468,5.94-5.822,0-10.527-1.941-14.115-5.764a20.243,20.243,0,0,1-5.411-14.35A19.968,19.968,0,0,1,68.433,333.407Zm5,24.584a11.825,11.825,0,0,0,9.292,4.058,11.518,11.518,0,0,0,9.116-4,15.5,15.5,0,0,0,3.47-10.351c0-4.235-1.176-7.646-3.588-10.233a11.883,11.883,0,0,0-9.234-3.941,11.51,11.51,0,0,0-9.175,3.941,14.664,14.664,0,0,0-3.47,10.115A15.247,15.247,0,0,0,73.433,357.991Z" transform="translate(-62.846 -327.584)" fill="#1a1818"/>
        <path id="Path_2" data-name="Path 2" d="M173.61,355.6l.236,6.646h.294c1.411-4.176,4.47-7,8.881-7a3.752,3.752,0,0,1,1.588.236l-.588,5.881a11.4,11.4,0,0,0-1.411-.118c-4.941,0-8.352,4.293-8.352,11.175v11.409h-6.7v-27.76Z" transform="translate(-125.031 -344.012)" fill="#1a1818"/>
        <path id="Path_3" data-name="Path 3" d="M233.573,383.656h-5.94l-.353-5.116h-.294c-1.705,3.823-4.646,5.7-8.94,5.7a11.153,11.153,0,0,1-8.646-3.764,14.261,14.261,0,0,1-3.47-10q0-7.057,4.412-11.292a15.873,15.873,0,0,1,11.351-4.235,26.75,26.75,0,0,1,11.881,2.882Zm-6.7-13.939v-8a15.433,15.433,0,0,0-5.764-1.235c-5.117,0-8.469,3.882-8.469,9.586,0,5.175,2.764,8.646,7,8.646C224.045,378.716,226.868,375.07,226.868,369.717Z" transform="translate(-147.823 -343.84)" fill="#1a1818"/>
        <path id="Path_4" data-name="Path 4" d="M285.585,383.656V355.9l6.058-.471.235,6.175h.294c1.765-4.411,4.941-6.646,9.469-6.646,6.764,0,10.351,4.235,10.351,11.822v16.879h-6.705v-16.35c0-4.529-1.882-6.823-5.646-6.823-4.469,0-7.351,3.7-7.351,10.351v12.821Z" transform="translate(-195.13 -343.84)" fill="#1a1818"/>
        <path id="Path_5" data-name="Path 5" d="M361.1,359.249a14.007,14.007,0,0,1,10.587-4.294,13.344,13.344,0,0,1,10.116,4.117,14.061,14.061,0,0,1,4,10.234,14.83,14.83,0,0,1-4.117,10.645,13.832,13.832,0,0,1-10.587,4.294,13.385,13.385,0,0,1-10.174-4.117,14.2,14.2,0,0,1-3.941-10.234A14.545,14.545,0,0,1,361.1,359.249Zm10.293,1.235c-4.764,0-7.7,3.882-7.7,9.057,0,5.234,2.941,9.175,7.7,9.175,4.705,0,7.7-3.882,7.7-9.117C379.095,364.424,376.1,360.484,371.39,360.484Z" transform="translate(-237.532 -343.84)" fill="#1a1818"/>
        <path id="Path_6" data-name="Path 6" d="M432.57,377.186a20.7,20.7,0,0,0,8.057,1.882c3,0,4.528-1.294,4.528-3.352,0-1.941-1.588-2.823-5.352-4.058-5.234-1.823-8.351-3.764-8.351-7.94a7.613,7.613,0,0,1,3.117-6.293,12.543,12.543,0,0,1,7.94-2.47,20.454,20.454,0,0,1,8.292,1.588l-1.294,5.058a17.411,17.411,0,0,0-7.175-1.471c-2.647,0-4.47,1.177-4.47,3.235,0,1.705,1.529,2.411,5.058,3.588l.765.235c5.116,1.706,7.94,3.764,7.94,8.234,0,5.411-4.235,8.822-11.115,8.822a24.454,24.454,0,0,1-9.234-1.882Z" transform="translate(-281.656 -343.84)" fill="#1a1818"/>
      </g>
    </g>
  </g>
  <g id="fiverr_logo_nav_dot" data-name="fiverr logo nav dot" transform="translate(172.73 29.858)">
    <path id="Path_7" data-name="Path 7" d="M493.817,412.379a5.635,5.635,0,1,0-5.635-5.635A5.722,5.722,0,0,0,493.817,412.379Z" transform="translate(-488.182 -401.108)" fill="#16919b"/>
  </g>
</svg>
