<svg xmlns="http://www.w3.org/2000/svg" width="16" height="16" viewBox="0 0 16 16">
  <path id="Path_8" data-name="Path 8" d="M9,1a8,8,0,1,0,8,8A8.009,8.009,0,0,0,9,1ZM8.531,4.927a10.962,10.962,0,0,1-2.093-.294c.108-.255.225-.5.351-.732A4.042,4.042,0,0,1,8.531,2.038Zm0,.938V8.531H5.6a11.831,11.831,0,0,1,.512-3.013A11.88,11.88,0,0,0,8.531,5.865Zm0,3.6v2.666a11.88,11.88,0,0,0-2.416.347A11.831,11.831,0,0,1,5.6,9.469Zm0,3.6v2.889A4.042,4.042,0,0,1,6.789,14.1c-.126-.232-.243-.477-.351-.732A10.962,10.962,0,0,1,8.531,13.073Zm.938,0a10.962,10.962,0,0,1,2.093.294c-.108.255-.225.5-.351.732a4.042,4.042,0,0,1-1.742,1.863Zm0-.938V9.469H12.4a11.831,11.831,0,0,1-.512,3.013A11.88,11.88,0,0,0,9.469,12.135Zm0-3.6V5.865a11.88,11.88,0,0,0,2.416-.347A11.831,11.831,0,0,1,12.4,8.531Zm0-3.6V2.038A4.042,4.042,0,0,1,11.211,3.9c.126.232.243.477.351.732A10.962,10.962,0,0,1,9.469,4.927Zm2.566-1.474a7.108,7.108,0,0,0-.758-1.139,7.068,7.068,0,0,1,2.5,1.489,8.816,8.816,0,0,1-1.308.566A9.4,9.4,0,0,0,12.035,3.453Zm-6.07,0a9.4,9.4,0,0,0-.434.916A8.816,8.816,0,0,1,4.223,3.8a7.068,7.068,0,0,1,2.5-1.489A7.108,7.108,0,0,0,5.965,3.453Zm-.751,1.8a12.537,12.537,0,0,0-.549,3.281H1.953a7.038,7.038,0,0,1,1.6-4.026A9.648,9.648,0,0,0,5.214,5.25ZM4.665,9.469a12.53,12.53,0,0,0,.549,3.281,9.648,9.648,0,0,0-1.658.745,7.038,7.038,0,0,1-1.6-4.026Zm.866,4.162a9.4,9.4,0,0,0,.434.916,7.063,7.063,0,0,0,.758,1.139,7.068,7.068,0,0,1-2.5-1.489A8.816,8.816,0,0,1,5.531,13.631Zm6.5.916a9.4,9.4,0,0,0,.434-.916,8.816,8.816,0,0,1,1.308.566,7.068,7.068,0,0,1-2.5,1.489A7.13,7.13,0,0,0,12.035,14.547Zm.751-1.8a12.53,12.53,0,0,0,.549-3.281h2.711a7.031,7.031,0,0,1-1.6,4.026A9.648,9.648,0,0,0,12.786,12.75Zm.549-4.219a12.53,12.53,0,0,0-.549-3.281,9.648,9.648,0,0,0,1.658-.745,7.031,7.031,0,0,1,1.6,4.026Z" transform="translate(-1 -1)"/>
</svg>
